<?xml version="1.0" encoding="UTF-8" standalone="no"?>
<svg
   height="224.37601"
   width="224.37601"
   fill="#000000"
   version="1.1"
   x="0px"
   y="0px"
   viewBox="0 0 74.792002 74.792002"
   enable-background="new 0 0 100 100"
   xml:space="preserve"
   id="svg1"
   sodipodi:docname="wheel.svg"
   inkscape:version="1.4.2 (f4327f4, 2025-05-13)"
   xmlns:inkscape="http://www.inkscape.org/namespaces/inkscape"
   xmlns:sodipodi="http://sodipodi.sourceforge.net/DTD/sodipodi-0.dtd"
   xmlns="http://www.w3.org/2000/svg"
   xmlns:svg="http://www.w3.org/2000/svg"><defs
     id="defs1" /><sodipodi:namedview
     id="namedview1"
     pagecolor="#505050"
     bordercolor="#ffffff"
     borderopacity="1"
     inkscape:showpageshadow="0"
     inkscape:pageopacity="0"
     inkscape:pagecheckerboard="1"
     inkscape:deskcolor="#505050"
     inkscape:zoom="2.7506454"
     inkscape:cx="86.8887"
     inkscape:cy="142.69378"
     inkscape:window-width="2560"
     inkscape:window-height="1369"
     inkscape:window-x="-8"
     inkscape:window-y="-8"
     inkscape:window-maximized="1"
     inkscape:current-layer="svg1" /><path
     d="M 37.396,0 C 16.744,0 0,16.742 0,37.396 0,58.05 16.744,74.792 37.396,74.792 58.049,74.792 74.792,58.05 74.792,37.396 74.792,16.742 58.049,0 37.396,0 Z m 0,4.799 c 15.104,0 27.808,10.271 31.508,24.21 l -2.528,1.19 c 0,0 -6.209,-0.848 -13.265,0 0,0 -3.73,-2.931 -15.201,-4.133 v -0.102 c -0.173,0.017 -0.344,0.033 -0.514,0.049 -0.169,-0.016 -0.341,-0.032 -0.514,-0.049 v 0.102 c -11.47,1.202 -15.2,4.133 -15.2,4.133 -7.057,-0.848 -13.266,0 -13.266,0 L 5.889,29.009 C 9.589,15.071 22.293,4.799 37.396,4.799 Z M 4.84,39.058 c 2.167,-1.898 4.141,-1.662 4.141,-1.662 3.586,2.334 11.783,0.987 11.783,0.987 5.292,0.848 9.385,12.418 9.385,12.418 v 14.395 c -0.87,1.015 -0.921,2.551 -0.765,3.805 C 15.772,65.561 5.569,53.558 4.84,39.058 Z M 45.408,69 c 0.157,-1.254 0.106,-2.79 -0.764,-3.805 V 50.801 c 0,0 4.093,-11.57 9.384,-12.418 0,0 8.197,1.347 11.783,-0.987 0,0 1.975,-0.236 4.141,1.662 C 69.223,53.558 59.02,65.561 45.408,69 Z"
     id="path1" /></svg>
